<?xml version="1.0" encoding="UTF-8"?><svg id="Layer_7" xmlns="http://www.w3.org/2000/svg" viewBox="0 0 142.38 138.61"><defs><style>.cls-1{fill:#fcd8c1;}.cls-2{fill:#1d1d1b;}</style></defs><path class="cls-1" d="M63.13,84.22c-4.12-.21-8.31,2.71-8.55,7.05s3.3,7.3,7.06,8.59c2.58,.89,5.39-.62,6.78-2.76,3.93-6.04,1.43-13.66-2.62-18.96-2.06-2.7-6.75-4.59-9.42-1.21-3.6,4.54-3.43,14.08,2.53,16.86,3.15,1.47,6.17,.69,8.21-2.15,4.56-6.36-2.36-16.51-9.7-16.35-6.92,.15-11.3,8.98-9,14.96,2.75,7.18,13.1,7.83,16.83,1.02s-2.99-17.55-10.15-18.06c-2.4-.17-5.36,1.97-5.79,4.4-.53,3.05-.39,5.84,.43,8.85l7.38-7.38c1.88,1.41,2.1,1.34,.66-.23l-1-1.19c-1.09-1.46-2.12-2.96-2.85-4.64-1.51-3.49-1.81-7.48-2.62-11.16-1.65-7.54-13.22-4.35-11.57,3.19,1.22,5.57,1.9,11.12,4.9,16.1,2.04,3.38,5.06,8.85,9.29,9.51s8.69-2.59,7.38-7.38c-.32-.79-.47-1.61-.43-2.47l-5.79,4.4,.92,.07-5.18-2.97c.92,1.2,1.96,3.36,3.13,4.28,3.44,2.15,5.46,2.11,6.07-.12-.87,.67-.73,.68,.42,.01l-4.62,.6c1.84,.49-.34,.29,.94-1.49l8.21-2.15c.92,1.41,1.27,1.65,1.07,.72-.04-1.08-.43-.66-1.18,1.26l-9.42-1.21c1.16,1.52,3.94,4.83,2.62,6.85l6.78-2.76,1.75,2.98-1.76,4.24-1.7,.71c7.72,.39,7.7-11.61,0-12h0Z"/><path class="cls-1" d="M33.08,42.55c3.78,1.92,4.07,4.4,5.36,8.12l2.76-6.78-.41,.22,4.62-.6c.7,.23,.98,1.16-.45-.6-.94-1.15-1.72-2.1-2.51-3.37-1.44-2.32-2.54-4.21-4.77-5.83-4.75-3.46-9.51,2.24-8.81,6.78,.38,2.48,2.19,5.05,3.28,7.28,1.88,3.84,4.15,7.48,5.51,11.54,2.65,7.89,5.52,15.61,10.15,22.59,4.24,6.41,14.64,.41,10.36-6.06s-6.75-13.86-9.48-21.33c-1.25-3.42-3-6.51-4.66-9.73-1.07-2.07-3.25-5.26-3.59-7.49l-8.81,6.78c.13,.1,1.77,3.56,2.48,4.49,1.08,1.42,2.21,2.76,3.57,3.92,2.8,2.4,6.09,3.64,9.57,1.77,2.2-1.19,3.6-4.35,2.76-6.78-2.33-6.71-4.1-11.85-10.88-15.3s-12.95,6.85-6.06,10.36h0Z"/><path class="cls-1" d="M34.93,63.67c0,6.06-.74,12.63,.26,18.61,.86,5.19,3.66,9.68,6.84,13.75,5.66,7.23,15.67,15.44,25.64,13.31,12.41-2.65,5.3-18.84,2.71-26.03-2.08-5.79-4.38-11.62-5.83-17.61-.66-2.75-.87-5.46-2.37-7.92-1.29-2.12-3.23-3.2-4.96-4.87-5.57-5.36-14.06,3.12-8.49,8.49,.87,.84,2.54,1.62,3.13,2.64,.75,1.29,.75,3.38,1.1,4.86,.95,3.93,2.34,7.76,3.67,11.57,1.21,3.46,2.47,6.89,3.7,10.34,.57,1.61,1.19,3.21,1.71,4.84,.35,.96,.63,1.93,.85,2.92,2.33-.69,2.85-1.04,1.57-1.06-.82-.67-3.27-.82-4.4-1.37-1.63-.8-3.13-1.78-4.49-2.97-2.21-1.92-4.3-4.34-5.92-6.79-4.29-6.5-2.75-15.26-2.75-22.71s-12-7.73-12,0h0Z"/><path class="cls-1" d="M65.58,18.31c-.06,5.34-2.79,11.04-4.59,16.01-.91,2.52-1.86,5.03-2.73,7.57-.38,1.11-.76,2.22-1.11,3.34-.82,2.63-1.15,2.25,.15,.99l10.03,2.65c-.68-4.09,1.82-10.29,3.13-14.1,1.47-4.28,3.16-8.22,4.01-12.68,1.43-7.55-10.13-10.78-11.57-3.19-2.09,11-9.07,21.55-7.13,33.17,.77,4.63,7.06,5.54,10.03,2.65,1.83-1.78,2.21-3.95,2.94-6.28,1.05-3.39,2.31-6.71,3.52-10.05,2.33-6.4,5.25-13.15,5.33-20.06,.08-7.72-11.92-7.73-12,0h0Z"/><path class="cls-1" d="M92.67,23.47c-8.69,9.01-15.49,19.55-22.07,30.16-1.41,2.28-4.13,5.45-4.76,8.05l-.93,1.63c4.3,1.26,5.96,.84,5-1.26-.05-.78-.63-2.08-1.02-2.74-1.44-2.42-4.27-2.22-5.84-3.97-.87-.96-.8-4.43-1.74-6.04-3.9-6.66-14.27-.63-10.36,6.06,.76,1.29,.41,3.69,1.11,5.21,.53,1.14,1.24,2.24,2.14,3.14,.63,.62,2.86,2.72,3.86,2.51,1.2,.72,1.21,.16,.03-1.67,.31,.93,.63,1.85,.95,2.77,2.29,5.9,9.25,10.03,14.46,4.53,2.35-2.49,3.77-6.02,5.51-8.95,2.23-3.74,4.63-7.35,7-11,4.62-7.11,9.22-13.81,15.12-19.93,5.37-5.56-3.11-14.05-8.49-8.49h0Z"/><path class="cls-1" d="M98.84,39.99c7.72,0,7.73-12,0-12s-7.73,12,0,12h0Z"/><path class="cls-1" d="M69.41,70.76c-2.33,5.63-2.14,12.04,5.24,12.92,1.91,.23,4.36-1.28,5.18-2.97,1.07-2.22,1.57-4.1,1.85-6.53,.65-5.8-6.7-7.05-10.24-4.24-6.47,5.13-3.31,15.16,4.18,16.88,9.81,2.26,14.04-5.56,13.28-14.14l-7.6,5.79c7.36,1.83,10.68-3.08,16.56-6.35,3.05-1.69,5.87-3.63,8.74-5.58,2.22-1.51,4.77-2.68,6.62-4.66,5.27-5.64-3.2-14.14-8.49-8.49-2.61,2.79-7.49,5.18-10.77,7.12-1.87,1.1-3.85,2.02-5.64,3.24-.86,.59-1.66,1.24-2.45,1.92-.39,.34-.78,.7-1.15,1.05-.68,.66-.76,.71-.23,.17-3.49-.87-7.95,1.76-7.6,5.79l.14,1.55c-.37,1.46-.15,1.87,.65,1.22,.77-.66,1.26-.26,1.47,1.19,.95,.57,1.2,1.17,.77,1.79l-10.24-4.24-.21,.47,5.18-2.97-.53-.06,5.18,2.97c1.83,2.87-.23,3.49,1,1.04,.27-.53,.45-1.13,.68-1.68,2.94-7.13-8.66-10.24-11.57-3.19h0Z"/><path class="cls-1" d="M116.09,48.36c-2.06,1.04-4.02,2.23-5.91,3.55-.88,.61-1.74,1.26-2.6,1.9-.32,.24-2.16,1.74-1.87,1.63h3.19l.47,.17c-2.65-1.87-6.67-.47-8.21,2.15-1.76,3.01-.5,6.33,2.15,8.21,3.67,2.6,7.24,.5,10.33-1.79,2.72-2.02,5.48-3.92,8.51-5.44s3.72-5.54,2.15-8.21c-1.72-2.94-5.31-3.62-8.21-2.15h0Z"/><path class="cls-1" d="M110.91,60.5c7.72,0,7.73-12,0-12s-7.73,12,0,12h0Z"/><path class="cls-1" d="M68.33,90.35c1.22,1.75,2.35,3.54,3.41,5.39,.45,.82,.9,1.64,1.35,2.46,1.67-3.69,1.62-4.49-.15-2.4-1.34,.87-3.08,2.71-4.17,3.92-.6,.68-1.12,1.42-1.53,2.22-1.27,1.89-.27,1.93,2.99,.13l-1.04-.29c1.3,3.06,2.04,3.34,2.2,.85,.96-1.58,1.06-4.64,1.3-6.44,.54-4.05,.21-8.43-.67-12.43-.34-1.56-.73-4.15-1.65-5.47-.55-2.5-1.74-1.38-3.57,3.34,1.12,.5,2.2,1.09,3.23,1.77,1.87,1.05,3.03,1.38,3.7,3.38,.59,1.8-.1,4.11,.5,6.03,2.76,8.82,12.98,6.23,19.2,3.53,7.76-3.37,16.57-2.12,24.83-3.85,5.82-1.22,17.04-1.94,14.5-11.01s-12.77-5.37-18.59-3.42c-4.41,1.48-8.97,2.76-13.53,3.66-2.51,.49-4.97,.71-7.52,.84-1.76,.09-4.22,.71-5.95,.44-7.55-1.18-10.81,10.38-3.19,11.57,6.88,1.07,14.9-.14,21.66-1.67,3.48-.79,6.94-1.75,10.34-2.82,1.39-.44,2.74-.97,4.12-1.42,.98-.38,1.98-.68,3-.9,1.47-.05,1.35-.19-.37-.44l-1.76-4.24-.08,1.14,1.76-4.24c1.73-.63,1.82-.83,.26-.59-.86,.06-1.72,.16-2.58,.3-2.08,.34-4.08,1.02-6.15,1.41-4.13,.79-8.51,.95-12.7,1.22s-7.39,.64-11.22,2.33c-1.3,.57-3.49,1.06-4.51,1.93-2.13,.24-2.15,.87-.03,1.89,.04-1.12,0-2.24-.1-3.35-.89-7.71-7.53-11.5-14.02-14.36s-14.92-.2-13.64,8.18c.58,3.83,2.45,7.16,2.82,11.1s-.57,7.13-1.34,11.02c-1.33,6.69,1.61,11.84,8.71,12.76,3.49,.45,6.32-.9,8.31-3.77,1.81-2.61,3.96-4.46,6.1-6.84,5.48-6.08-.08-13.45-3.87-18.89-4.38-6.29-14.79-.3-10.36,6.06h0Z"/><path class="cls-2" d="M52.21,56.5c3.31-5.17,4.69-10.23,6.07-16.13,1.82-7.76,4-15.25,7.05-22.62,.75-1.81,1.26-3.46,3.15-4.21,2.17-.87,5.1-.38,6.7,1.39,3.69,4.07,1.32,9.47-.8,13.45-3.39,6.36-7.45,12.23-10.59,18.76-1.59,3.32-5.6,9.9-.8,12.39,5.42,2.81,9.76-5.14,12.18-8.72,4.56-6.75,8.71-13.76,13.44-20.39,1.59-2.23,4.11-6.71,6.76-7.8,2.93-1.21,4.4,2.23,5.06,4.52,.99,3.47-.13,6.65-2.35,9.34-5.23,6.37-12.75,10.57-17.86,17.11-2.1,2.69-4.32,6.31-5.5,9.52-.93,2.52,.05,4.4,1.26,6.65,1.82,3.41,7,.38,5.18-3.03-1-1.88-.62-1.78,.5-3.9,.94-1.77,1.82-3.55,3.01-5.17,2.81-3.8,6.69-6.94,10.23-10.05,5.68-4.98,12.61-10.43,11.81-18.82-.56-5.83-3.93-13.52-11.05-12.63-6.61,.82-11.48,10.07-14.79,14.97-2.48,3.67-4.93,7.35-7.31,11.08-1.18,1.86-2.34,3.74-3.57,5.56-.62,.91-1.24,1.82-1.9,2.71-.95,1.27-3.27,2.68-1.92,3.97,1.46,1.39,.59,.19,1.32-.8,.52-.7,.76-1.97,1.12-2.77,.92-2,1.93-3.99,2.95-5.94,1.96-3.76,4.43-7.16,6.55-10.82,3.83-6.6,6.97-13.08,3.24-20.56-2.76-5.55-9.51-7.82-15.23-5.63-3.45,1.32-4.79,3.89-6.15,7.13-1.95,4.62-3.84,9.31-5.04,14.18-2.04,8.26-3.26,16.95-7.91,24.21-2.09,3.26,3.1,6.27,5.18,3.03h0Z"/><path class="cls-2" d="M79.06,71.5c3.43,.17,5.16-1.11,7.86-3.12,3.22-2.4,6.41-4.85,9.61-7.28,3.76-2.86,7.41-6.08,11.56-8.37,3.15-1.74,11.17-5.62,13.89-1.41,4.28,6.63-15.19,15.24-19.47,17.63-5.71,3.21-15.58,7.07-16.07,14.51-.25,3.86,5.75,3.84,6,0,.15-2.32,5.11-4.56,6.83-5.62,2.55-1.56,5.12-3.07,7.74-4.5,4.51-2.46,9.33-4.94,13.45-8,5.74-4.27,11.47-12.03,5.53-18.61s-16.49-2.02-22.47,1.73c-4.87,3.06-9.22,6.95-13.88,10.31-2.91,2.1-6.93,6.91-10.59,6.73-3.86-.19-3.85,5.81,0,6h0Z"/><path class="cls-2" d="M89.84,86.22c6.99-.02,13.51-3.14,20.09-5.33,4.92-1.64,22.44-6.41,17.1,4.85-3.36,7.1-15.71,7.32-22.45,7.71s-14.77-.67-19.99,4.05c-2.87,2.59,1.38,6.83,4.24,4.24,3.79-3.42,12.7-2.05,17.51-2.41s9.9-.99,14.62-2.35c7.15-2.06,14.73-8.42,13.07-16.8-1.43-7.23-9.86-8.43-15.95-7.69-9.63,1.18-18.54,7.69-28.23,7.72-3.86,0-3.87,6.01,0,6h0Z"/><path class="cls-2" d="M87.88,95.77c-4.28,1.68-5.85,6.17-9.47,8.84-3.39,2.5-13.54,7.48-17.9,4.98-3.35-1.93-6.38,3.26-3.03,5.18,5,2.87,12.1,.45,17.09-1.44,2.8-1.06,5.41-2.37,7.79-4.2,1.21-.93,2.36-1.92,3.39-3.05s2.39-4,3.73-4.53c3.55-1.4,2.01-7.2-1.6-5.79h0Z"/><path class="cls-2" d="M52.62,56.78c-.18-9.07,.35-17.87-5.98-25.18-5.12-5.91-15.49-6.76-20.44-.19-5.42,7.2,.69,16.17,3.96,22.74,4.97,9.99,2.36,22.62,1.49,33.27-.31,3.85,5.69,3.83,6,0,.64-7.82,1.38-15.21,.98-23.1-.32-6.31-1.96-10.86-5.01-16.39-1.66-3.01-3.72-6.43-3.44-10.04,.49-6.21,8.16-6.33,11.73-2.65,5.53,5.72,4.56,14.25,4.71,21.52,.08,3.86,6.08,3.87,6,0h0Z"/><path class="cls-2" d="M30.87,90.19c-.04,3.3,1.86,5.77,3.51,8.5,2.08,3.44,4.37,6.25,7.54,8.74,4.89,3.84,12.9,9.26,19.45,8.53,3.8-.42,3.84-6.43,0-6-4.87,.54-11.28-3.92-15.02-6.66-2.31-1.7-4.18-3.61-5.76-6.01-1.14-1.73-3.74-4.96-3.71-7.09,.05-3.86-5.95-3.86-6,0h0Z"/><path class="cls-1" d="M37.1,88.77c-.03,1.08,.11,2.1,.41,3.13,1.91,6.67,11.41,5.08,11.79-1.6,.12-2.21-.67-3.79-2.11-5.38-3.82-4.2-12.4,.21-10.03,5.84,1.26,3,2.25,5.89,4.28,8.45l8.49-8.49c-1.16-1.32-1.7-2.52-1.99-4.17l-10.97,4.62c3.34,7.52,9.04,14.35,16.7,17.76,7.42,3.3,16.37,1.84,20.92-5.32,4.15-6.54-6.23-12.56-10.36-6.06-2.14,3.37-7.41-.49-9.28-1.92-3.61-2.78-5.78-6.38-7.62-10.52-2.95-6.65-12.04-1.56-10.97,4.62,.63,3.65,2.66,6.72,5.08,9.47,5.19,5.9,13.18-2.57,8.49-8.49,0,0-1.19-3.13-1.19-3.15l-10.03,5.84,.39,.43-1.76-4.24-.04,.71,11.79-1.6,.02,.06c.2-7.72-11.8-7.72-12,0h0Z"/><path class="cls-1" d="M43.59,91.63c7.72,0,7.73-12,0-12s-7.73,12,0,12h0Z"/><path class="cls-1" d="M49.34,87.8c-.05-.7-.09-1.34-.04-2.04l-.82,3.03,.24-.5-10.97-4.62s-.2,1.24-.08,.96h10.36l-.27-.53,.82,3.03c-.06,.7-.4,1.1,.12,.33,.41-.61,.67-1.53,.85-2.26,.34-1.41,.19-2.82,.58-4.2,.37-1.31,.82-2.57,1.12-3.9,.17-.76,.31-1.51,.41-2.28,.06-.39,.11-.78,.14-1.17,.08-.69,.03-.51-.16,.56,1.9-2.63,.45-6.69-2.15-8.21-3.03-1.77-6.3-.48-8.21,2.15-1.23,1.7-1.13,3.32-1.5,5.28s-1.24,3.9-1.66,5.9c-.24,1.14-.16,2.32-.32,3.46,.27-1.93-.53,.84-.7,1.33-.8,2.37-.57,4.35,.55,6.6,1.89,3.76,8.57,4.08,10.36,0,.54-1.24,1.08-2.49,1.29-3.83,.47-2.95-.51-5.88-3.47-7.08-2.58-1.04-6.18-.28-7.49,2.45-.89,1.85-1.15,3.55-1.02,5.57,.51,7.67,12.52,7.72,12,0h0Z"/></svg>